<?xml version="1.0" encoding="UTF-8"?>
<svg id="Camada_1" data-name="Camada 1" xmlns="http://www.w3.org/2000/svg" viewBox="0 0 255.62 201">
  <defs>
    <style>
      .cls-1 {
        fill: #312a91;
        font-size: 111.98px;
      }

      .cls-1, .cls-2, .cls-3, .cls-4, .cls-5 {
        font-family: SpaceTime-Regular, 'Space Time';
      }

      .cls-6 {
        fill: #f1d2ff;
      }

      .cls-6, .cls-7, .cls-8, .cls-9, .cls-10, .cls-11, .cls-12, .cls-13, .cls-14, .cls-15, .cls-16 {
        stroke-width: 0px;
      }

      .cls-2 {
        fill: #5c2ba0;
      }

      .cls-2, .cls-5 {
        font-size: 117.92px;
      }

      .cls-7 {
        fill: #f9f8f4;
      }

      .cls-8 {
        fill: #eadcff;
      }

      .cls-9 {
        fill: #c43122;
      }

      .cls-10 {
        fill: #f6d2ff;
      }

      .cls-11 {
        fill: #ffee8d;
      }

      .cls-3 {
        fill: #3800a5;
        font-size: 114.95px;
      }

      .cls-12 {
        fill: #8fe2ff;
      }

      .cls-13 {
        fill: #f9edbd;
      }

      .cls-14 {
        fill: #f4d038;
      }

      .cls-4 {
        fill: #640484;
        font-size: 124.53px;
      }

      .cls-5 {
        fill: #7400a5;
      }

      .cls-15 {
        fill: #ffd2fb;
      }

      .cls-16 {
        fill: #eae1ff;
      }
    </style>
  </defs>
  <path class="cls-11" d="M30.47,143.1c14.12,3.41,37.15,14.83,57.59,15.26,17.54.37,37.67-.93,55.6-3.5.13,0,.8.01,1.3-.09.32-.06.5-.16.47-.27l-2.21-8.32c-.08-.28-1.51-.64-2.72-.45-18.06,2.74-35.75,9.07-52.56,6.98-11.47-1.42-41.19-9.4-58.42-10.43-.81-.05-1.33.23.95.81Z"/>
  <path class="cls-13" d="M30.35,143.38c14.07,5.39,38.29,16.4,58.71,20.69,17.7,3.72,37.69,3.81,56.15,3.8.14.02,1.11-.31,1.63-.33.33-.02-.01-3.34-.03-3.45l-.08-1.75c-.05-.29-.51-7.57-1.76-7.56-18.61.17-37.94,2.9-55.39,3.02-.43,0-42.7-11.88-60.13-15.35-.82-.16-1.37.04.9.94Z"/>
  <path class="cls-14" d="M30.36,143.15c14.04,3.93,37.13,12.83,57.31,16.6,17.36,3.24,35.97.28,53.96-1.63.13,0,4.01-.48,4.51-.56.32-.05-.62-2.61-.65-2.72l-.59-2.45c-.07-.29-2.69.68-3.91.82-18.12,2.08-36.25,4.46-53.21,2.49-.42-.05-41.81-9.13-58.36-13.38-.8-.21-1.33.18.93.84Z"/>
  <path class="cls-8" d="M162.7,110.87c3.35,1.35,7.3-.64,9.7-4.77,1.7-2.92,3.41-8.28,2.28-12.14-.44-1.52-1.07-1.94-1.35-3.9-.43-2.94.35-6.36,1.21-6.5.17-.03.58.04,1.78,3.03,1.25,3.11,1.47,4.66,2.14,6.61.26.77.62,1.68,3.99,6.94,2.39,3.73,3.58,5.59,3.99,6.07,1.43,1.65,5.36,6.22,9.56,4.55,4.37-1.74,6.2-9.11,6.56-10.73.98-4.34.1-5.83-.29-16.37-.24-6.49.1-5.72-.07-18.53-.1-7.25-.15-10.94-.43-13.66-.39-3.83-1.08-10.27-3.71-17.34-1.61-4.33-3.63-9.76-7.84-12.79-1.04-.75-3.2-2.26-6.05-1.92-.65.08-4.22.5-6.78,4.52-2.19,3.44-1.77,6.56-4.45,9.16-1.6,1.55-2.5,1.18-2.77,1.03-.9-.48-1.31-1.91-1.58-2.76,0,0-1.64-5.14-5.47-9.38-.88-.98-2.99-3.32-5.9-3.15-.49.03-3.65.28-5.61,3.91-.75,1.39-1.03,2.72-1.61,8.99-.59,6.51-.89,9.76-1,14.31-.11,4.5.05,4.53.08,11.76.04,10.62-.3,11.49-.08,18.15.23,6.85.36,10.35,1.34,14.04,1.08,4.08,2.51,6.57,5.36,11.54,3.24,5.64,4.85,8.46,6.99,9.32Z"/>
  <text class="cls-3" transform="translate(146.62 97.71) scale(.61 1)"><tspan x="0" y="0">M</tspan></text>
  <path class="cls-6" d="M225.74,128.04c2.12,1.21,7.82,3.84,13.98,0,5.53-3.45,8.19-10.1,9.7-13.87,2.78-6.96,3.37-13.4,3.71-17.34.16-1.9.87-11.15-1.43-22.54-1.46-7.23-3.01-12.65-5.13-16.04-5.85-9.32-9.21-18.01-16.12-21.68-6.77-3.6-11.55-1.26-13.02-.47-1.89,1.02-6.28,3.84-9.79,10.61-3.19,6.16-3.92,21.03-4.61,26.6-.51,4.08.47,11.07,2.18,21.2,1.91,11.36,4.65,10.2,11.12,20.69,4.08,6.62,5.63,10.67,9.41,12.84Z"/>
  <path class="cls-10" d="M112.7,86.86c-.39,1.45-2.81-.24-5.22,2.02-2.37,2.22-3.57,7.15-3.27,11.2.26,3.46,1.55,5.53,3.86,9.41,8.36,14.03,6.89,12.99,8.63,14.95,4.88,5.49,12.02,8.65,19.11,6.5,2.71-.82,10.41-3.14,13.41-13.01,2.28-7.5.58-15.21.29-16.47-1.2-5.17-3.63-9.15-5.99-13.01-2.62-4.28-4.92-6.89-4.56-7.8.37-.95,2.88,1.92,5.7.87,3.04-1.14,5.83-6.59,5.69-11.61-.08-2.7-2.55-2.33-7.12-13.53-3.23-7.92-6.49-9.59-7.06-10.16-1.57-1.56-8.16-7.93-16.61-5.88-1.58.38-5.38,1.38-9.12,5.77-1.54,1.81-4.78,5.61-6,12.44-1.56,8.71,1.96,15.21,2.35,16.2,2.69,6.85,6.43,10.19,5.91,12.12Z"/>
  <path class="cls-16" d="M79.17,156.39c2.12,1.21,7.82,3.84,13.98,0,5.53-3.45,8.19-10.1,9.7-13.87,2.78-6.96,3.37-13.4,3.71-17.34.16-1.9.87-11.15-1.43-22.54-1.46-7.23-3.01-12.65-5.13-16.04-5.85-9.32-9.21-18.01-16.12-21.68-6.77-3.6-11.55-1.26-13.02-.47-1.89,1.02-6.28,3.84-9.79,10.61-3.19,6.16-3.95,12.29-4.64,17.87-.51,4.08-1.5,12.58.21,22.71,1.91,11.36,6.08,18.13,12.55,28.61,4.08,6.62,6.2,9.97,9.98,12.14Z"/>
  <path class="cls-15" d="M14.65,42.88c-5.9,5.1-8.46,13.36-9.7,17.34-2.48,7.98-2.69,15.04-2.85,20.23-.15,4.86-.35,11.41,1.33,19.08,1.59,7.24,4.01,11.63,8.37,19.36,5.34,9.47,8,14.21,12.36,17.34,8.13,5.84,15.9,3.26,17.68,2.6,5.22-1.94,8.62-5.8,10.41-7.88,2.95-3.42,5.07-5.9,5.38-9.75.22-2.8-.71-4.08-4.96-13.66-4.08-9.2-4.34-10.53-6.26-12.64-.86-.95-.65-3.39-4.33-4.41-5.96-1.65-8.72,5.34-9.13,4.34-.36-.88-2.9-6,2.23-9.47,2.57-1.73,4.73-3.19,7.61-2.89,3.69.38,4.52,3.25,6.85,2.31,3.57-1.43,4.93-9.46,5.13-10.69.28-1.68.87-5.17,0-8.96-.78-3.38-2.15-4.53-4.75-8.38-4.29-6.35-4.23-6.31-6.8-9.49-3.25-4.02-6.28-6.38-10.51-7.27-5.56-1.18-11.83-2.5-18.07,2.89Z"/>
  <text class="cls-5" transform="translate(201.62 116.47) scale(.61 1)"><tspan x="0" y="0">o</tspan></text>
  <text class="cls-1" transform="translate(102.25 117.77) scale(.62 1)"><tspan x="0" y="0">S</tspan></text>
  <text class="cls-2" transform="translate(53.9 144.16) scale(.61 1)"><tspan x="0" y="0">o</tspan></text>
  <text class="cls-4" transform="translate(0 126.09) scale(.67 1)"><tspan x="0" y="0">C</tspan></text>
  <path class="cls-9" d="M166.83,147.48c3.02,19.15-4.09,39.4-16.67,51.2-.77.72-.37,2.5.51,2.3,1.65-.37,3.31-.89,4.97-1.57,19.7-7.98,32.53-34.4,28.65-59.01-3.87-24.61-22.98-38.08-42.68-30.1-1.66.67-3.28,1.48-4.84,2.41-.84.5-.66,2.37.23,2.42,14.57.8,26.81,13.2,29.83,32.36Z"/>
  <path class="cls-12" d="M144.28,168.59l-2.65-23.8c-.26-2.3.7-4.49,2.13-4.91l2.86-.82c1.43-.41,2.8,1.12,3.06,3.42l2.65,23.8c.26,2.3-.7,4.49-2.13,4.91l-2.86.82c-1.43.41-2.8-1.12-3.06-3.42Z"/>
  <g>
    <path class="cls-7" d="M210.79,129.66c-1.82-11.53-6.98-20.61-13.98-26.19-.41-.32-.85-.52-1.3-.59-6.37-.98-13.46-.46-21.05,2.61-12.55,5.09-21.82,15.29-28.39,25.62-1.32,2.07-1.49,5.33-.45,7.77,1.84,4.36,3.33,9.61,4.25,15.47s1.17,11.61.84,16.85c-.19,2.94.93,5.68,2.7,6.5,8.85,4.08,20.02,6,32.57.91,7.59-3.08,13.98-8.02,19.3-13.74.38-.41.71-.92.97-1.51,4.51-10.24,6.36-22.17,4.55-33.7Z"/>
    <path class="cls-9" d="M227.81,122.77c-1.58-1.99-13.7-16.71-31.61-19.78,7.31,5.53,10.54,15.69,12.4,27.56s2.04,23.27-2.76,33.7c14.85-16.34,21.16-38.53,21.96-41.49Z"/>
  </g>
  <path class="cls-9" d="M189.46,158.1c-6.85,2.77-13.71-3.3-15.33-13.58-1.62-10.27,2.62-20.85,9.47-23.63,6.85-2.77,13.71,3.3,15.33,13.58,1.62,10.27-2.62,20.85-9.47,23.63Z"/>
  <path class="cls-12" d="M188.74,153.51c-5.16,2.09-10.33-2.49-11.55-10.23-1.22-7.74,1.98-15.71,7.13-17.8,5.16-2.09,10.33,2.49,11.55,10.23,1.22,7.74-1.98,15.71-7.13,17.8Z"/>
</svg>